<?xml version="1.0" standalone="no"?>
<!DOCTYPE svg PUBLIC "-//W3C//DTD SVG 20010904//EN"
 "http://www.w3.org/TR/2001/REC-SVG-20010904/DTD/svg10.dtd">
<svg version="1.0" xmlns="http://www.w3.org/2000/svg"
 width="167.000000pt" height="125.000000pt" viewBox="0 0 167.000000 125.000000"
 preserveAspectRatio="xMidYMid meet">

<g transform="translate(0.000000,125.000000) scale(0.100000,-0.100000)"
fill="#000000" stroke="none">
<path d="M1060 1017 c0 -4 11 -24 25 -45 55 -83 71 -201 39 -281 -14 -36 -20
-41 -58 -46 -23 -4 -46 -6 -51 -5 -6 1 -30 2 -55 1 -44 -2 -44 -2 -20 -15 14
-8 28 -12 32 -10 4 2 8 -8 10 -23 l4 -28 11 26 c9 21 20 28 52 31 39 3 40 3
27 -17 -7 -11 -22 -21 -32 -23 -11 -1 -27 -17 -38 -35 -17 -29 -19 -30 -26
-12 -7 19 -7 19 -19 -3 -9 -17 -21 -22 -49 -22 -52 0 -82 10 -82 26 0 8 -4 14
-10 14 -5 0 -10 -7 -10 -15 0 -12 -14 -15 -65 -15 -54 0 -66 3 -75 20 -6 11
-15 20 -21 20 -6 0 -8 -4 -4 -9 3 -5 0 -13 -6 -17 -6 -3 -36 18 -68 50 -31 31
-62 56 -69 56 -7 0 -26 21 -43 48 l-31 47 6 -39 c14 -97 104 -214 201 -261
186 -91 409 -23 503 153 56 106 57 226 3 334 -22 43 -81 112 -81 95z m26 -467
c-14 -22 -31 -40 -37 -40 -6 0 4 20 22 45 40 55 52 51 15 -5z"/>
<path d="M803 845 c-6 -14 -7 -25 -2 -25 5 0 9 -7 9 -15 0 -8 5 -15 10 -15 6
0 10 7 10 16 0 12 8 15 35 11 19 -3 35 -1 35 3 0 10 -26 20 -51 20 -10 0 -19
7 -19 15 0 23 -14 18 -27 -10z"/>
<path d="M1500 798 c0 -3 9 -27 21 -53 27 -61 38 -250 17 -310 -16 -50 -48
-57 -95 -22 l-32 24 34 16 c30 14 35 22 35 49 l-1 33 -23 -29 -24 -29 -48 17
c-59 20 -65 20 -58 1 4 -11 0 -15 -16 -15 -17 0 -21 4 -15 18 16 40 35 108 35
127 0 11 -11 -9 -23 -45 -35 -103 -81 -172 -148 -223 -49 -37 -58 -34 -14 4
39 35 62 69 46 69 -5 0 -29 -20 -51 -44 -50 -53 -89 -70 -200 -87 -103 -15
-240 -6 -339 21 -93 26 -114 37 -192 102 -39 33 -60 46 -56 34 7 -18 6 -19
-10 -4 -12 10 -26 12 -43 7 -14 -4 -44 -7 -67 -8 -23 -1 -54 -6 -69 -11 -31
-12 -73 9 -81 40 -3 12 -11 16 -20 13 -24 -9 -12 -106 21 -180 77 -170 292
-253 696 -270 250 -10 469 26 618 101 97 49 146 95 185 175 31 64 32 70 32
191 0 123 -1 126 -33 187 -29 52 -82 118 -82 101z m-167 -385 c25 -13 27 -17
27 -81 0 -61 -3 -73 -32 -113 -42 -58 -52 -64 -123 -89 -171 -59 -505 -66
-709 -14 -68 17 -76 22 -56 34 17 10 17 10 -31 32 -32 15 -35 19 -32 50 4 31
3 32 -11 14 -15 -19 -21 -44 -17 -73 4 -28 -61 -7 -73 22 -3 10 6 34 23 59 16
23 37 67 47 97 9 30 19 56 20 58 2 2 32 -23 67 -55 63 -60 140 -104 225 -130
54 -16 230 -19 281 -4 51 14 48 6 -8 -29 -61 -37 -67 -61 -16 -61 40 0 101 28
129 59 19 21 19 21 -12 34 l-30 13 66 34 c43 22 91 59 132 101 69 71 73 73
133 42z"/>
<path d="M717 724 c-11 -11 12 -43 43 -59 28 -15 30 -14 30 4 0 11 -12 29 -26
40 -28 22 -37 25 -47 15z"/>
<path d="M760 630 c-12 -8 -9 -10 13 -10 16 0 26 4 22 10 -8 12 -16 12 -35 0z"/>
<path d="M1100 453 c-25 -20 -67 -46 -95 -59 -27 -14 -39 -21 -25 -18 42 11
93 40 135 78 52 46 43 45 -15 -1z"/>
<path d="M523 442 c46 -51 181 -103 262 -101 l50 2 -55 9 c-97 17 -154 36
-214 73 -34 20 -52 28 -43 17z"/>
<path d="M928 363 c7 -3 16 -2 19 1 4 3 -2 6 -13 5 -11 0 -14 -3 -6 -6z"/>
<path d="M873 353 c9 -2 23 -2 30 0 6 3 -1 5 -18 5 -16 0 -22 -2 -12 -5z"/>
</g>
</svg>
