<?xml version="1.0" standalone="no"?>
<!DOCTYPE svg PUBLIC "-//W3C//DTD SVG 20010904//EN"
 "http://www.w3.org/TR/2001/REC-SVG-20010904/DTD/svg10.dtd">
<svg version="1.0" xmlns="http://www.w3.org/2000/svg"
 width="167.000000pt" height="125.000000pt" viewBox="0 0 167.000000 125.000000"
 preserveAspectRatio="xMidYMid meet">

<g transform="translate(0.000000,125.000000) scale(0.100000,-0.100000)"
fill="#000000" stroke="none">
<path d="M700 1108 l-55 -22 35 -8 c19 -4 40 -5 47 -3 7 2 -2 -15 -20 -39 -18
-24 -35 -41 -39 -39 -17 9 -7 -64 12 -92 26 -39 26 -61 0 -35 -30 30 -38 25
-33 -22 4 -39 1 -47 -36 -86 -23 -24 -41 -50 -41 -57 0 -22 -18 -27 -54 -15
-18 6 -38 21 -44 35 -12 27 -5 148 10 178 5 10 7 21 4 24 -2 3 -17 -19 -33
-49 -23 -45 -28 -65 -28 -133 0 -71 4 -88 33 -148 79 -160 263 -246 432 -203
115 30 208 107 259 215 22 48 26 69 26 151 -1 85 -4 101 -30 154 -64 128 -178
205 -314 212 -62 4 -86 0 -131 -18z m108 -60 c20 -20 14 -65 -13 -95 -21 -24
-26 -26 -35 -13 -13 20 -13 76 0 101 12 22 30 25 48 7z m199 -83 c53 -37 80
-134 53 -186 -17 -31 -33 -22 -73 42 -33 51 -37 62 -25 76 11 14 10 16 -9 11
-24 -6 -33 7 -33 48 0 20 5 24 33 24 18 0 42 -7 54 -15z"/>
<path d="M1518 764 c26 -51 42 -144 42 -242 0 -88 -19 -142 -50 -142 -22 0
-80 29 -80 40 0 3 14 13 30 22 25 14 30 23 30 55 -1 40 -5 38 -36 -13 -9 -16
-13 -16 -59 -1 -60 21 -66 21 -59 2 5 -11 -1 -15 -20 -15 -26 0 -34 17 -18 35
12 14 32 88 31 116 0 15 -6 6 -14 -24 -30 -110 -105 -221 -176 -261 -31 -17
-30 -15 16 33 27 28 44 51 36 51 -7 0 -33 -21 -59 -48 -54 -55 -88 -68 -224
-84 -189 -23 -369 16 -476 102 -35 28 -67 48 -72 45 -5 -3 -12 0 -16 6 -5 8
-3 9 6 4 8 -5 11 -4 6 3 -3 5 -18 8 -34 6 -15 -2 -54 -8 -87 -13 -33 -4 -68
-12 -77 -16 -13 -5 -27 3 -53 29 l-35 36 0 -62 c0 -104 61 -207 160 -270 61
-39 201 -82 335 -104 155 -25 485 -26 609 -1 168 34 313 100 372 169 126 151
121 422 -12 548 l-36 35 20 -41z m-207 -349 c57 -20 69 -38 69 -104 0 -46 -5
-62 -36 -107 -41 -60 -81 -81 -209 -110 -164 -38 -605 -18 -672 31 -17 13 -17
14 1 21 15 6 11 10 -25 23 -42 16 -44 18 -41 54 2 20 1 37 -2 37 -11 0 -36
-59 -36 -85 0 -23 -3 -25 -22 -19 -48 14 -61 43 -34 73 26 29 66 118 66 147
l0 29 37 -41 c54 -58 139 -111 223 -140 85 -29 231 -33 320 -9 30 8 56 13 58
11 4 -4 -19 -21 -78 -59 -43 -28 -44 -41 -5 -45 44 -5 97 14 129 47 l28 29
-32 17 -32 17 62 37 c59 36 170 135 170 153 0 11 12 10 61 -7z"/>
<path d="M1120 466 c-14 -14 -52 -41 -84 -60 -33 -20 -56 -36 -50 -36 18 0
110 59 138 89 35 37 32 42 -4 7z"/>
<path d="M494 451 c15 -23 103 -75 165 -97 38 -14 87 -23 116 -23 49 1 49 1
-25 15 -98 17 -154 39 -214 81 -26 19 -45 30 -42 24z"/>
<path d="M918 353 c7 -3 16 -2 19 1 4 3 -2 6 -13 5 -11 0 -14 -3 -6 -6z"/>
<path d="M863 343 c9 -2 23 -2 30 0 6 3 -1 5 -18 5 -16 0 -22 -2 -12 -5z"/>
</g>
</svg>
