<?xml version="1.0" standalone="no"?>
<!DOCTYPE svg PUBLIC "-//W3C//DTD SVG 20010904//EN"
 "http://www.w3.org/TR/2001/REC-SVG-20010904/DTD/svg10.dtd">
<svg version="1.0" xmlns="http://www.w3.org/2000/svg"
 width="167.000000pt" height="125.000000pt" viewBox="0 0 167.000000 125.000000"
 preserveAspectRatio="xMidYMid meet">

<g transform="translate(0.000000,125.000000) scale(0.100000,-0.100000)"
fill="#000000" stroke="none">
<path d="M1535 782 c36 -71 46 -295 16 -350 -15 -28 -46 -28 -91 -1 l-34 21
34 17 c29 13 36 22 38 51 l3 35 -24 -29 -24 -30 -49 16 c-53 17 -56 25 -40 93
4 17 -4 2 -17 -33 -38 -98 -92 -170 -164 -220 -51 -36 -48 -25 9 28 31 29 47
49 37 50 -8 0 -31 -16 -50 -36 -59 -63 -105 -77 -260 -82 -243 -7 -379 39
-515 175 -13 12 -26 23 -31 23 -4 0 -2 -5 5 -12 20 -20 14 -23 -51 -26 -34 -1
-88 -7 -120 -13 -49 -8 -63 -8 -83 6 -13 8 -24 22 -24 29 0 7 -7 19 -15 26
-12 10 -15 7 -21 -15 -19 -77 24 -205 94 -278 102 -107 347 -167 675 -167 281
0 486 47 638 146 119 78 163 174 157 344 -3 91 -8 113 -32 162 -16 31 -40 67
-53 80 l-23 22 15 -32z m-185 -272 c0 -5 -5 -10 -11 -10 -5 0 -7 5 -4 10 3 6
8 10 11 10 2 0 4 -4 4 -10z m-7 -72 c13 -10 18 -30 19 -78 2 -59 -1 -69 -33
-115 -42 -61 -108 -97 -224 -122 -116 -26 -477 -26 -587 0 -78 18 -87 24 -68
43 7 7 -2 14 -30 23 -37 11 -40 14 -40 49 l-1 37 -14 -25 c-8 -14 -14 -37 -15
-52 0 -34 -28 -38 -55 -8 -18 20 -18 22 17 88 20 37 38 82 40 101 3 25 11 36
32 45 25 10 31 8 90 -50 106 -104 257 -161 405 -152 39 2 71 3 71 2 0 -1 -16
-11 -35 -23 -34 -20 -45 -44 -25 -56 20 -12 115 24 144 54 27 28 28 31 11 37
-15 6 -10 11 26 28 78 36 138 79 187 134 50 55 58 59 85 40z"/>
<path d="M1220 757 c0 -25 -35 -138 -52 -170 -5 -10 -26 -37 -46 -60 l-36 -42
42 40 c54 50 92 126 99 199 3 31 3 56 -1 56 -3 0 -6 -11 -6 -23z"/>
<path d="M1085 743 c-10 -16 -39 -53 -65 -83 -26 -30 -68 -84 -94 -120 -26
-35 -54 -65 -62 -66 -8 -1 -36 26 -62 60 -68 90 -170 201 -143 156 11 -19 43
-62 70 -95 l50 -60 -53 -6 c-29 -3 -58 -9 -65 -13 -9 -6 -108 75 -133 109 -13
17 -9 -5 6 -33 23 -44 112 -121 174 -150 50 -24 69 -27 157 -27 84 0 106 3
140 22 31 17 35 22 18 23 -16 0 -20 5 -16 19 4 15 -2 21 -26 26 -17 3 -33 10
-35 14 -3 4 14 30 38 57 58 66 138 194 122 194 -2 0 -12 -12 -21 -27z"/>
<path d="M551 474 c18 -19 67 -52 108 -72 70 -35 81 -37 175 -39 l101 -1 -85
8 c-125 12 -228 53 -297 119 -37 35 -39 23 -2 -15z"/>
<path d="M1150 465 c-8 -8 -40 -28 -70 -44 -30 -17 -50 -31 -45 -31 15 0 109
56 124 74 17 20 10 21 -9 1z"/>
<path d="M998 383 c7 -3 16 -2 19 1 4 3 -2 6 -13 5 -11 0 -14 -3 -6 -6z"/>
<path d="M958 373 c7 -3 16 -2 19 1 4 3 -2 6 -13 5 -11 0 -14 -3 -6 -6z"/>
</g>
</svg>
