<?xml version="1.0" standalone="no"?>
<!DOCTYPE svg PUBLIC "-//W3C//DTD SVG 20010904//EN"
 "http://www.w3.org/TR/2001/REC-SVG-20010904/DTD/svg10.dtd">
<svg version="1.0" xmlns="http://www.w3.org/2000/svg"
 width="167.000000pt" height="125.000000pt" viewBox="0 0 167.000000 125.000000"
 preserveAspectRatio="xMidYMid meet">

<g transform="translate(0.000000,125.000000) scale(0.100000,-0.100000)"
fill="#000000" stroke="none">
<path d="M1009 1042 c20 -21 50 -65 66 -97 28 -56 30 -68 30 -170 0 -100 -2
-115 -28 -167 -26 -53 -76 -108 -98 -108 -5 0 8 21 28 48 40 52 76 127 71 144
-2 6 -14 -5 -26 -25 -17 -30 -29 -38 -62 -43 -33 -5 -38 -9 -29 -21 9 -10 9
-20 0 -39 l-11 -26 -163 7 c-201 7 -220 10 -243 36 -11 12 -38 30 -61 41 -30
14 -47 31 -62 61 -19 40 -20 41 -21 13 -1 -77 102 -206 204 -253 54 -25 72
-28 161 -28 93 0 105 2 167 33 82 40 159 122 189 202 34 86 31 197 -7 275 -16
33 -50 81 -76 108 -56 56 -81 64 -29 9z"/>
<path d="M886 808 c-16 -23 -130 -63 -148 -52 -5 3 -38 2 -73 -1 -65 -7 -65
-7 -65 -39 0 -63 63 -128 138 -142 76 -14 173 56 187 134 6 35 -8 122 -20 122
-2 0 -11 -10 -19 -22z"/>
<path d="M1490 814 c0 -5 10 -30 22 -55 17 -35 22 -68 26 -165 7 -186 -14
-224 -97 -173 l-34 20 31 19 c32 20 50 59 37 81 -5 7 -14 0 -27 -20 -23 -36
-24 -36 -71 -16 -20 8 -43 15 -51 15 -10 0 -13 -6 -10 -15 5 -11 -1 -15 -19
-15 -29 0 -43 15 -30 33 14 18 33 91 32 123 0 22 -4 15 -15 -25 -28 -104 -113
-230 -179 -263 -11 -6 0 10 24 36 43 43 50 63 20 51 -8 -3 -24 -21 -37 -39
-13 -19 -38 -41 -56 -50 -110 -52 -350 -65 -491 -27 -87 24 -120 41 -196 105
-51 42 -52 43 -118 38 -36 -2 -74 -8 -83 -13 -29 -15 -58 -10 -83 16 l-25 24
1 -57 c3 -232 236 -356 714 -382 430 -23 724 73 810 263 48 106 51 270 7 369
-19 44 -101 142 -102 122z m-158 -395 l38 -19 0 -65 c0 -59 -3 -69 -36 -112
-41 -55 -75 -75 -159 -97 -105 -26 -232 -34 -400 -26 -149 8 -200 15 -297 41
-40 10 -50 25 -21 31 12 3 3 11 -28 25 -43 19 -45 22 -41 57 2 20 2 36 -2 36
-11 0 -36 -59 -36 -85 0 -29 -16 -32 -48 -9 -28 20 -28 38 3 78 32 42 58 105
50 123 -3 9 21 -9 53 -39 210 -194 549 -184 750 22 62 63 70 68 102 63 19 -2
51 -13 72 -24z"/>
<path d="M970 225 c-73 -50 -80 -56 -80 -70 0 -35 123 -3 163 43 18 19 18 20
-5 36 -29 20 -35 19 -78 -9z"/>
<path d="M1301 694 c0 -11 3 -14 6 -6 3 7 2 16 -1 19 -3 4 -6 -2 -5 -13z"/>
<path d="M1099 504 c-47 -50 -83 -74 -148 -100 -31 -13 -49 -24 -41 -24 23 0
132 56 160 83 36 34 74 77 69 77 -3 0 -21 -16 -40 -36z"/>
<path d="M487 449 c7 -7 15 -10 18 -7 3 3 -2 9 -12 12 -14 6 -15 5 -6 -5z"/>
<path d="M545 410 c2 -4 42 -20 88 -35 76 -24 89 -26 153 -17 l69 9 -90 2
c-66 1 -108 8 -157 25 -38 13 -66 21 -63 16z"/>
<path d="M868 373 c7 -3 16 -2 19 1 4 3 -2 6 -13 5 -11 0 -14 -3 -6 -6z"/>
</g>
</svg>
