<?xml version="1.0" standalone="no"?>
<!DOCTYPE svg PUBLIC "-//W3C//DTD SVG 20010904//EN"
 "http://www.w3.org/TR/2001/REC-SVG-20010904/DTD/svg10.dtd">
<svg version="1.0" xmlns="http://www.w3.org/2000/svg"
 width="167.000000pt" height="125.000000pt" viewBox="0 0 167.000000 125.000000"
 preserveAspectRatio="xMidYMid meet">

<g transform="translate(0.000000,125.000000) scale(0.100000,-0.100000)"
fill="#000000" stroke="none">
<path d="M830 870 c-9 -6 -10 -10 -3 -10 6 0 15 5 18 10 8 12 4 12 -15 0z"/>
<path d="M847 852 c-31 -19 -31 -36 2 -40 20 -3 21 -1 11 20 -11 22 -10 22 4
4 17 -21 18 -21 35 12 13 24 3 29 -18 10 -11 -10 -13 -10 -7 0 9 16 7 15 -27
-6z"/>
<path d="M790 835 c7 -9 15 -13 17 -11 7 7 -7 26 -19 26 -6 0 -6 -6 2 -15z"/>
<path d="M880 800 c0 -5 -7 -10 -15 -10 -7 0 -18 -8 -24 -17 -9 -17 -10 -17
-16 0 -4 9 -14 17 -22 17 -11 0 -10 -5 4 -23 14 -20 23 -23 49 -17 25 6 31 4
27 -6 -6 -15 35 -16 55 -1 11 8 11 12 0 19 -10 8 -10 11 0 15 23 9 13 33 -13
31 -20 -2 -24 -6 -19 -21 4 -14 2 -18 -7 -15 -8 3 -13 12 -11 22 2 9 0 16 -3
16 -3 0 -5 -4 -5 -10z"/>
<path d="M724 792 c4 -6 -3 -21 -15 -33 -28 -28 -20 -70 23 -112 17 -18 29
-26 24 -19 -4 6 -3 12 3 12 5 0 12 -9 16 -19 8 -26 31 -33 49 -15 11 10 13 22
7 37 -4 12 -6 27 -4 33 2 6 -13 24 -33 39 -21 16 -34 22 -29 14 8 -12 6 -12
-8 0 -9 7 -17 24 -17 37 0 12 -5 26 -12 30 -7 4 -8 3 -4 -4z"/>
<path d="M1190 764 c0 -98 -57 -234 -119 -285 -55 -45 -66 -34 -21 22 44 56
47 64 24 73 -25 9 -34 7 -34 -9 0 -36 -23 -65 -52 -65 -17 0 -27 4 -23 10 7
12 -3 50 -14 50 -4 0 -6 -13 -3 -30 5 -32 -12 -41 -22 -13 -6 14 -9 15 -15 4
-10 -16 -47 -9 -43 8 2 10 -5 11 -25 6 -15 -4 -66 -9 -112 -11 -81 -4 -86 -3
-145 33 -34 20 -71 45 -84 56 -33 30 -29 1 9 -56 41 -63 91 -104 167 -140 195
-91 422 -2 507 198 16 38 24 169 11 182 -3 4 -6 -11 -6 -33z"/>
<path d="M1531 734 c15 -34 22 -76 26 -157 8 -180 -21 -229 -107 -176 l-34 21
37 19 c31 16 37 25 37 52 l0 32 -23 -29 -23 -28 -54 16 c-65 19 -61 19 -54 1
4 -9 0 -15 -9 -15 -14 0 -13 7 4 57 10 31 19 63 18 72 0 9 -6 -2 -13 -25 -25
-78 -79 -165 -135 -215 -30 -27 -60 -49 -65 -49 -6 1 5 15 25 33 45 41 65 67
50 67 -6 0 -25 -16 -43 -36 -68 -75 -169 -100 -362 -91 -159 7 -254 36 -349
108 -37 28 -71 49 -74 45 -3 -3 -12 -1 -18 4 -11 10 -142 0 -205 -15 -25 -6
-45 7 -75 50 -19 28 -26 15 -26 -47 0 -137 92 -260 236 -315 146 -57 322 -83
555 -83 312 0 562 71 678 194 72 76 95 144 96 276 0 94 -2 111 -26 163 -31 65
-65 117 -78 117 -5 0 0 -21 11 -46z m-175 -334 c2 0 4 -33 4 -73 0 -66 -3 -77
-32 -118 -43 -58 -52 -65 -125 -89 -181 -62 -534 -68 -723 -14 -49 14 -53 17
-36 29 16 12 14 15 -23 26 -38 11 -41 15 -41 48 -1 34 -2 35 -15 17 -8 -11
-15 -35 -15 -53 0 -37 -13 -42 -48 -17 -29 20 -28 38 7 93 16 25 35 66 41 91
19 73 34 76 87 19 115 -123 302 -187 476 -161 31 5 57 7 57 6 0 -2 -18 -13
-40 -24 -44 -22 -59 -45 -42 -62 16 -16 113 17 146 51 26 27 27 30 9 41 -10 6
-13 13 -7 16 56 24 147 90 193 140 l56 61 34 -13 c18 -8 35 -14 37 -14z"/>
<path d="M910 680 c0 -21 11 -35 36 -48 26 -14 48 5 38 32 -5 13 -13 16 -32
11 -16 -4 -28 -1 -33 7 -7 10 -9 10 -9 -2z"/>
<path d="M1352 655 c0 -16 2 -22 5 -12 2 9 2 23 0 30 -3 6 -5 -1 -5 -18z"/>
<path d="M750 601 c0 -6 5 -13 10 -16 6 -3 10 1 10 9 0 9 -4 16 -10 16 -5 0
-10 -4 -10 -9z"/>
<path d="M530 446 c19 -20 68 -54 109 -74 68 -34 83 -37 165 -39 l91 -1 -70 8
c-128 14 -217 49 -292 112 l-38 32 35 -38z"/>
<path d="M366 457 c3 -10 9 -15 12 -12 3 3 0 11 -7 18 -10 9 -11 8 -5 -6z"/>
<path d="M1139 443 c-13 -16 -12 -17 4 -4 9 7 17 15 17 17 0 8 -8 3 -21 -13z"/>
<path d="M1051 394 c-35 -19 -59 -34 -52 -34 18 0 99 40 112 56 6 8 10 13 8
13 -2 -1 -33 -17 -68 -35z"/>
<path d="M918 343 c6 -2 18 -2 25 0 6 3 1 5 -13 5 -14 0 -19 -2 -12 -5z"/>
</g>
</svg>
